<svg width="55" height="53" viewBox="0 0 55 53" fill="none" xmlns="http://www.w3.org/2000/svg">
<path d="M28.0288 53L32.2173 49.2143C37.3365 44.5873 40.7211 41.0961 42.3712 38.7405C44.0211 36.3849 44.8461 33.8821 44.8461 31.2321C44.8461 30.0964 44.6663 29.0553 44.3067 28.1089C43.9472 27.1625 43.4712 26.2056 42.8788 25.2381H52.4615V53H28.0288ZM1.69231 53V25.2381H11.275C10.6404 26.1214 10.1539 27.0679 9.81538 28.0774C9.47688 29.0869 9.30769 30.1384 9.30769 31.2321C9.30769 33.8821 10.1115 36.3639 11.7192 38.6774C13.327 40.9908 16.7327 44.5032 21.9365 49.2143L26.125 53H1.69231ZM44.8461 22.7143C42.6885 22.7143 40.8798 21.9887 39.4202 20.5375C37.9606 19.0863 37.2308 17.2881 37.2308 15.1429C37.2308 13.0396 37.9606 11.252 39.4202 9.77976C40.8798 8.30753 42.6885 7.57142 44.8461 7.57142C46.9616 7.57142 48.7596 8.30753 50.2404 9.77976C51.7212 11.252 52.4615 13.0396 52.4615 15.1429C52.4615 17.2881 51.7212 19.0863 50.2404 20.5375C48.7596 21.9887 46.9616 22.7143 44.8461 22.7143ZM27.0769 20.1905C24.5807 20.1905 22.476 19.3387 20.7625 17.6351C19.049 15.9315 18.1923 13.8389 18.1923 11.3571C18.1923 8.91746 19.049 6.83532 20.7625 5.11071C22.476 3.3861 24.5807 2.5238 27.0769 2.5238C29.5307 2.5238 31.625 3.3861 33.3596 5.11071C35.0943 6.83532 35.9615 8.91746 35.9615 11.3571C35.9615 13.8389 35.0943 15.9315 33.3596 17.6351C31.625 19.3387 29.5307 20.1905 27.0769 20.1905ZM13.1154 31.2321C13.1154 33.167 14.0568 35.3229 15.9394 37.6994C17.8221 40.0759 21.5346 43.767 27.0769 48.7726C32.5346 43.8512 36.2259 40.2021 38.151 37.8256C40.076 35.449 41.0385 33.2512 41.0385 31.2321C41.0385 29.2131 40.3509 27.499 38.976 26.0899C37.601 24.6807 35.9193 23.9762 33.9308 23.9762C32.7885 23.9762 31.7413 24.2181 30.7894 24.7018C29.8375 25.1855 28.9808 25.7849 28.2192 26.5L27.0769 27.6357L25.8712 26.5C25.1096 25.827 24.2529 25.2381 23.301 24.7333C22.349 24.2286 21.3231 23.9762 20.2231 23.9762C18.1923 23.9762 16.5 24.6807 15.1462 26.0899C13.7923 27.499 13.1154 29.2131 13.1154 31.2321ZM9.30769 22.7143C7.15 22.7143 5.34134 21.9887 3.88173 20.5375C2.42211 19.0863 1.69231 17.2881 1.69231 15.1429C1.69231 13.0396 2.42211 11.252 3.88173 9.77976C5.34134 8.30753 7.15 7.57142 9.30769 7.57142C11.4231 7.57142 13.2211 8.30753 14.7019 9.77976C16.1827 11.252 16.9231 13.0396 16.9231 15.1429C16.9231 17.2881 16.1827 19.0863 14.7019 20.5375C13.2211 21.9887 11.4231 22.7143 9.30769 22.7143Z" fill="white"/>
</svg>
